# 3ds Max Wavefront OBJ Exporter v0.97b - (c)2007 guruware
# File Created: 09.05.2017 16:21:30

#
# object back2222
#

v  0.0000 560.0000 -0.0000
v  0.0000 0.0000 -0.0000
v  560.0000 0.0000 -0.0000
v  560.0000 560.0000 -0.0000
# 4 vertices

vn 0.0000 0.0000 1.0000
# 1 vertex normals

vt 0.0000 0.0000 0.0000
vt 0.0000 1.0000 1.0000
vt 1.0000 1.0000 1.0000
vt 1.0000 0.0000 0.0000
vt 1.0000 1.0000 1.0000
vt 0.0000 0.0000 0.0000
# 6 texture coords

g back2222
s off
f 1/5/1 2/2/1 3/6/1 
f 3/1/1 4/4/1 1/3/1 
# 2 faces

