# 3ds Max Wavefront OBJ Exporter v0.97b - (c)2007 guruware
# File Created: 09.05.2017 16:21:59

#
# object left2222
#

v  0.0000 0.0000 -0.0000
v  0.0000 560.0000 -0.0000
v  0.0000 560.0000 560.0000
v  0.0000 0.0000 560.0000
# 4 vertices

vn 1.0000 0.0000 -0.0000
# 1 vertex normals

vt 1.2500 -0.2500 0.5000
vt 1.2500 1.2500 0.5000
vt -0.2500 1.2500 0.5000
vt -0.2500 -0.2500 0.5000
vt 1.2500 1.2500 0.5000
vt -0.2500 -0.2500 0.5000
# 6 texture coords

g left2222
s off
f 1/5/1 2/3/1 3/6/1 
f 3/4/1 4/1/1 1/2/1 
# 2 faces

