# 3ds Max Wavefront OBJ Exporter v0.97b - (c)2007 guruware
# File Created: 18.05.2017 00:25:41

#
# object Bolt_Caps
#

v  91.2231 6.4326 455.1740
v  91.4876 6.4307 454.5206
v  91.3588 6.1453 454.4335
v  91.0638 6.1476 455.1624
v  92.0908 6.4266 454.0693
v  92.0315 6.1408 453.9301
v  92.8708 6.4213 453.9408
v  92.9014 6.1350 453.7867
v  93.6188 6.4164 454.1698
v  93.7358 6.1295 454.0422
v  94.1344 6.4132 454.6946
v  94.3109 6.1259 454.6277
v  94.2793 6.4125 455.3751
v  94.4725 6.1250 455.3864
v  94.0148 6.4143 456.0283
v  94.1775 6.1271 456.1152
v  93.4118 6.4185 456.4798
v  93.5049 6.1318 456.6187
v  92.6348 6.1376 456.7620
v  92.6317 6.4236 456.6081
v  91.8837 6.4285 456.3793
v  91.8005 6.1431 456.5067
v  91.2256 6.1466 455.9211
v  91.3682 6.4318 455.8545
v  91.8434 6.8627 455.2167
v  91.9962 6.8615 454.8395
v  92.3442 6.8593 454.5789
v  92.7946 6.8563 454.5046
v  93.2265 6.8534 454.6369
v  93.5241 6.8516 454.9400
v  93.6078 6.8510 455.3326
v  93.4551 6.8521 455.7100
v  93.1069 6.8546 455.9706
v  92.6567 6.8576 456.0447
v  92.2247 6.8604 455.9126
v  91.9271 6.8623 455.6095
v  92.2620 6.9785 455.2448
v  92.3410 6.9778 455.0495
v  92.5212 6.9767 454.9144
v  92.7543 6.9752 454.8762
v  92.9778 6.9736 454.9447
v  93.1319 6.9727 455.1016
v  93.1753 6.9725 455.3047
v  93.0963 6.9731 455.5000
v  92.9161 6.9742 455.6349
v  92.6828 6.9757 455.6733
v  92.4593 6.9772 455.6048
v  92.3052 6.9782 455.4481
v  92.7163 7.0158 455.2747
v  90.7154 6.4029 411.7229
v  90.9790 6.4034 411.0692
v  90.8523 6.1171 410.9823
v  90.5583 6.1165 411.7115
v  91.5813 6.4044 410.6169
v  91.5241 6.1182 410.4779
v  92.3611 6.4057 410.4873
v  92.3941 6.1197 410.3332
v  93.1095 6.4070 410.7151
v  93.2286 6.1211 410.5872
v  93.6259 6.4078 411.2393
v  93.8046 6.1220 411.1719
v  93.7719 6.4081 411.9195
v  93.9674 6.1224 411.9305
v  93.5083 6.4076 412.5733
v  93.6735 6.1218 412.6596
v  92.9060 6.4066 413.0255
v  93.0015 6.1207 413.1642
v  92.1318 6.1192 413.3087
v  92.1260 6.4053 413.1550
v  91.2971 6.1179 413.0547
v  91.3776 6.4040 412.9273
v  90.8614 6.4032 412.4032
v  90.7212 6.1169 412.4700
v  91.3321 6.8382 411.7649
v  91.4841 6.8384 411.3875
v  91.8319 6.8390 411.1262
v  92.2821 6.8399 411.0513
v  92.7142 6.8405 411.1830
v  93.0124 6.8410 411.4855
v  93.0967 6.8412 411.8781
v  92.9445 6.8408 412.2557
v  92.5967 6.8403 412.5168
v  92.1465 6.8395 412.5917
v  91.7143 6.8388 412.4602
v  91.4164 6.8384 412.1575
v  91.7497 6.9575 411.7924
v  91.8284 6.9575 411.5971
v  92.0084 6.9578 411.4616
v  92.2415 6.9582 411.4231
v  92.4652 6.9586 411.4911
v  92.6194 6.9588 411.6477
v  92.6631 6.9590 411.8509
v  92.5844 6.9588 412.0463
v  92.4042 6.9584 412.1816
v  92.1713 6.9580 412.2202
v  91.9476 6.9577 412.1521
v  91.7934 6.9575 411.9955
v  92.2037 6.9987 411.8217
# 98 vertices

vn -0.8174 0.4705 -0.3323
vn -0.8174 0.4706 -0.3323
vn -0.5307 0.4576 -0.7134
vn -0.5308 0.4574 -0.7134
vn -0.1416 0.4573 -0.8780
vn -0.1416 0.4571 -0.8781
vn 0.2599 0.4788 -0.8386
vn 0.2598 0.4790 -0.8385
vn 0.6126 0.5160 -0.5987
vn 0.6127 0.5159 -0.5987
vn 0.8204 0.5446 -0.1741
vn 0.8205 0.5446 -0.1741
vn 0.7818 0.5382 0.3150
vn 0.7819 0.5379 0.3150
vn 0.5201 0.5031 0.6902
vn 0.5201 0.5034 0.6900
vn 0.1466 0.4693 0.8708
vn 0.1462 0.4701 0.8704
vn -0.2578 0.4554 0.8522
vn -0.2576 0.4557 0.8521
vn -0.6315 0.4619 0.6228
vn -0.6315 0.4613 0.6232
vn -0.8611 0.4739 0.1842
vn -0.8613 0.4736 0.1841
vn -0.5450 0.8082 -0.2230
vn -0.5449 0.8083 -0.2231
vn -0.3629 0.7916 -0.4916
vn -0.3625 0.7918 -0.4917
vn -0.0962 0.7819 -0.6160
vn -0.0964 0.7817 -0.6161
vn 0.1842 0.7901 -0.5846
vn 0.1841 0.7901 -0.5846
vn 0.4194 0.8116 -0.4068
vn 0.4193 0.8115 -0.4070
vn 0.5483 0.8282 -0.1157
vn 0.5483 0.8282 -0.1158
vn 0.5252 0.8246 0.2103
vn 0.5254 0.8245 0.2102
vn 0.3598 0.8041 0.4733
vn 0.3598 0.8042 0.4731
vn 0.1056 0.7855 0.6098
vn 0.1054 0.7856 0.6096
vn -0.1771 0.7835 0.5957
vn -0.1770 0.7835 0.5957
vn -0.4278 0.7976 0.4253
vn -0.4280 0.7975 0.4252
vn -0.5713 0.8116 0.1225
vn -0.5712 0.8116 0.1227
vn -0.2579 0.9601 -0.1081
vn -0.2586 0.9600 -0.1076
vn -0.1749 0.9546 -0.2413
vn -0.1748 0.9545 -0.2418
vn -0.0445 0.9501 -0.3088
vn -0.0446 0.9500 -0.3089
vn 0.0964 0.9511 -0.2936
vn 0.0962 0.9510 -0.2939
vn 0.2120 0.9561 -0.2022
vn 0.2118 0.9561 -0.2023
vn 0.2735 0.9601 -0.0576
vn 0.2732 0.9603 -0.0569
vn 0.2628 0.9593 0.1036
vn 0.2629 0.9593 0.1035
vn 0.1828 0.9543 0.2363
vn 0.1835 0.9542 0.2363
vn 0.0565 0.9503 0.3063
vn 0.0568 0.9502 0.3065
vn -0.0845 0.9512 0.2967
vn -0.2048 0.9567 0.2070
vn -0.2048 0.9567 0.2071
vn -0.2700 0.9611 0.0585
vn -0.2694 0.9612 0.0591
vn -0.0793 0.9962 -0.0359
vn -0.0532 0.9954 -0.0793
vn -0.0103 0.9947 -0.1024
vn 0.0367 0.9945 -0.0979
vn 0.0750 0.9949 -0.0677
vn 0.0951 0.9953 -0.0194
vn 0.0916 0.9952 0.0342
vn 0.0651 0.9948 0.0787
vn 0.0232 0.9945 0.1019
vn -0.0234 0.9949 0.0980
vn -0.0626 0.9957 0.0676
vn -0.0830 0.9964 0.0195
vn -0.8218 0.4638 -0.3309
vn -0.8217 0.4640 -0.3310
vn -0.5357 0.4532 -0.7125
vn -0.1468 0.4561 -0.8778
vn -0.1467 0.4558 -0.8779
vn 0.2545 0.4813 -0.8388
vn 0.6075 0.5212 -0.5994
vn 0.6076 0.5212 -0.5994
vn 0.8156 0.5514 -0.1753
vn 0.8157 0.5513 -0.1753
vn 0.7778 0.5445 0.3139
vn 0.7780 0.5441 0.3141
vn 0.5169 0.5072 0.6896
vn 0.5169 0.5071 0.6896
vn 0.1438 0.4703 0.8707
vn 0.1437 0.4706 0.8706
vn -0.2602 0.4528 0.8528
vn -0.6343 0.4563 0.6241
vn -0.6344 0.4561 0.6241
vn -0.8646 0.4669 0.1855
vn -0.8648 0.4666 0.1853
vn -0.5522 0.8036 -0.2220
vn -0.5522 0.8037 -0.2219
vn -0.3700 0.7888 -0.4908
vn -0.3699 0.7887 -0.4910
vn -0.1041 0.7810 -0.6158
vn -0.1036 0.7812 -0.6156
vn 0.1771 0.7917 -0.5847
vn 0.1765 0.7919 -0.5845
vn 0.4121 0.8150 -0.4072
vn 0.4117 0.8152 -0.4074
vn 0.5413 0.8327 -0.1166
vn 0.5187 0.8288 0.2099
vn 0.5187 0.8288 0.2098
vn 0.3537 0.8070 0.4730
vn 0.3537 0.8070 0.4729
vn 0.1001 0.7863 0.6097
vn 0.0998 0.7864 0.6096
vn -0.1827 0.7819 0.5960
vn -0.1827 0.7819 0.5961
vn -0.4338 0.7939 0.4261
vn -0.5779 0.8067 0.1236
vn -0.5778 0.8068 0.1236
vn -0.2665 0.9578 -0.1073
vn -0.2663 0.9579 -0.1068
vn -0.1830 0.9530 -0.2415
vn -0.1831 0.9531 -0.2408
vn -0.0527 0.9496 -0.3089
vn -0.0532 0.9498 -0.3082
vn 0.0879 0.9518 -0.2939
vn 0.0882 0.9519 -0.2934
vn 0.2037 0.9580 -0.2019
vn 0.2037 0.9578 -0.2026
vn 0.2646 0.9626 -0.0578
vn 0.2650 0.9625 -0.0573
vn 0.2546 0.9615 0.1034
vn 0.2547 0.9615 0.1036
vn 0.1756 0.9558 0.2360
vn 0.1755 0.9556 0.2365
vn 0.0492 0.9506 0.3065
vn 0.0494 0.9505 0.3066
vn -0.0921 0.9504 0.2970
vn -0.0920 0.9504 0.2970
vn -0.2121 0.9549 0.2079
vn -0.2123 0.9548 0.2078
vn -0.2773 0.9589 0.0596
vn -0.2777 0.9588 0.0592
vn -0.0881 0.9955 -0.0355
vn -0.0617 0.9949 -0.0793
vn -0.0186 0.9945 -0.1027
vn 0.0283 0.9948 -0.0982
vn 0.0673 0.9955 -0.0675
vn 0.0873 0.9960 -0.0197
vn 0.0838 0.9959 0.0347
vn 0.0575 0.9952 0.0793
vn 0.0154 0.9946 0.1027
vn -0.0318 0.9946 0.0988
vn -0.0708 0.9951 0.0686
vn -0.0916 0.9956 0.0197
# 162 vertex normals

vt 0.0000 0.4167 0.0000
vt 0.0000 0.3333 0.0000
vt 0.0833 0.3333 0.0000
vt 0.0833 0.4167 0.0000
vt 0.1667 0.3333 0.0000
vt 0.1667 0.4167 0.0000
vt 0.2500 0.3333 0.0000
vt 0.2500 0.4167 0.0000
vt 0.3333 0.3333 0.0000
vt 0.3333 0.4167 0.0000
vt 0.4167 0.3333 0.0000
vt 0.4167 0.4167 0.0000
vt 0.5000 0.3333 0.0000
vt 0.5000 0.4167 0.0000
vt 0.5833 0.3333 0.0000
vt 0.5833 0.4167 0.0000
vt 0.6667 0.3333 0.0000
vt 0.6667 0.4167 0.0000
vt 0.7500 0.3333 0.0000
vt 0.7500 0.4167 0.0000
vt 0.8333 0.3333 0.0000
vt 0.8333 0.4167 0.0000
vt 0.9167 0.3333 0.0000
vt 0.9167 0.4167 0.0000
vt 1.0000 0.3333 0.0000
vt 1.0000 0.4167 0.0000
vt 0.0000 0.1667 0.0000
vt 0.0833 0.1667 0.0000
vt 0.1667 0.1667 0.0000
vt 0.2500 0.1667 0.0000
vt 0.3333 0.1667 0.0000
vt 0.4167 0.1667 0.0000
vt 0.5000 0.1667 0.0000
vt 0.5833 0.1667 0.0000
vt 0.6667 0.1667 0.0000
vt 0.7500 0.1667 0.0000
vt 0.8333 0.1667 0.0000
vt 0.9167 0.1667 0.0000
vt 1.0000 0.1667 0.0000
vt 0.0000 0.0833 0.0000
vt 0.0833 0.0833 0.0000
vt 0.1667 0.0833 0.0000
vt 0.2500 0.0833 0.0000
vt 0.3333 0.0833 0.0000
vt 0.4167 0.0833 0.0000
vt 0.5000 0.0833 0.0000
vt 0.5833 0.0833 0.0000
vt 0.6667 0.0833 0.0000
vt 0.7500 0.0833 0.0000
vt 0.8333 0.0833 0.0000
vt 0.9167 0.0833 0.0000
vt 1.0000 0.0833 0.0000
vt 0.0417 0.0000 0.0000
vt 0.0001 0.0778 0.0000
vt 0.1250 0.0000 0.0000
vt 0.0835 0.0778 0.0000
vt 0.2083 0.0000 0.0000
vt 0.1668 0.0779 0.0000
vt 0.2500 0.0000 0.0000
vt 0.3305 0.0779 0.0000
vt 0.3333 0.0000 0.0000
vt 0.4137 0.0779 0.0000
vt 0.4167 0.0000 0.0000
vt 0.4970 0.0778 0.0000
vt 0.5417 0.0000 0.0000
vt 0.5001 0.0778 0.0000
vt 0.6250 0.0000 0.0000
vt 0.5835 0.0778 0.0000
vt 0.7083 0.0000 0.0000
vt 0.6668 0.0779 0.0000
vt 0.7500 0.0000 0.0000
vt 0.8305 0.0779 0.0000
vt 0.8333 0.0000 0.0000
vt 0.9137 0.0778 0.0000
vt 0.9167 0.0000 0.0000
vt 0.9970 0.0778 0.0000
# 76 texture coords

g Bolt_Caps
s off
f 1/2/1 2/3/1 3/4/1 
f 3/4/2 4/1/2 1/2/2 
f 2/3/3 5/5/3 6/6/3 
f 6/6/4 3/4/4 2/3/4 
f 7/7/5 8/8/5 6/6/5 
f 6/6/6 5/5/6 7/7/6 
f 9/9/7 10/10/7 8/8/7 
f 8/8/8 7/7/8 9/9/8 
f 10/10/9 9/9/9 11/11/9 
f 11/11/10 12/12/10 10/10/10 
f 13/13/11 14/14/11 12/12/11 
f 12/12/12 11/11/12 13/13/12 
f 13/13/13 15/15/13 16/16/13 
f 16/16/14 14/14/14 13/13/14 
f 17/17/15 18/18/15 16/16/15 
f 16/16/16 15/15/16 17/17/16 
f 19/20/17 18/18/17 17/17/17 
f 17/17/18 20/19/18 19/20/18 
f 21/21/19 22/22/19 19/20/19 
f 19/20/20 20/19/20 21/21/20 
f 23/24/21 22/22/21 21/21/21 
f 21/21/22 24/23/22 23/24/22 
f 1/25/23 4/26/23 23/24/23 
f 23/24/24 24/23/24 1/25/24 
f 2/3/25 1/2/25 25/27/25 
f 25/27/26 26/28/26 2/3/26 
f 26/28/27 27/29/27 5/5/27 
f 5/5/28 2/3/28 26/28/28 
f 7/7/29 5/5/29 27/29/29 
f 27/29/30 28/30/30 7/7/30 
f 7/7/31 28/30/31 29/31/31 
f 29/31/32 9/9/32 7/7/32 
f 29/31/33 30/32/33 11/11/33 
f 11/11/34 9/9/34 29/31/34 
f 30/32/35 31/33/35 13/13/35 
f 13/13/36 11/11/36 30/32/36 
f 15/15/37 13/13/37 31/33/37 
f 31/33/38 32/34/38 15/15/38 
f 15/15/39 32/34/39 33/35/39 
f 33/35/40 17/17/40 15/15/40 
f 33/35/41 34/36/41 20/19/41 
f 20/19/42 17/17/42 33/35/42 
f 35/37/43 21/21/43 20/19/43 
f 20/19/44 34/36/44 35/37/44 
f 36/38/45 24/23/45 21/21/45 
f 21/21/46 35/37/46 36/38/46 
f 24/23/47 36/38/47 25/39/47 
f 25/39/48 1/25/48 24/23/48 
f 37/40/49 38/41/49 26/28/49 
f 26/28/50 25/27/50 37/40/50 
f 26/28/51 38/41/51 39/42/51 
f 39/42/52 27/29/52 26/28/52 
f 39/42/53 40/43/53 28/30/53 
f 28/30/54 27/29/54 39/42/54 
f 40/43/55 41/44/55 29/31/55 
f 29/31/56 28/30/56 40/43/56 
f 42/45/57 30/32/57 29/31/57 
f 29/31/58 41/44/58 42/45/58 
f 42/45/59 43/46/59 31/33/59 
f 31/33/60 30/32/60 42/45/60 
f 43/46/61 44/47/61 32/34/61 
f 32/34/62 31/33/62 43/46/62 
f 44/47/63 45/48/63 33/35/63 
f 33/35/64 32/34/64 44/47/64 
f 45/48/65 46/49/65 34/36/65 
f 34/36/66 33/35/66 45/48/66 
f 47/50/67 35/37/67 34/36/67 
f 34/36/67 46/49/67 47/50/67 
f 48/51/68 36/38/68 35/37/68 
f 35/37/69 47/50/69 48/51/69 
f 37/52/70 25/39/70 36/38/70 
f 36/38/71 48/51/71 37/52/71 
f 49/53/72 38/41/72 37/54/72 
f 49/55/73 39/42/73 38/56/73 
f 49/57/74 40/43/74 39/58/74 
f 49/59/75 41/60/75 40/43/75 
f 49/61/76 42/62/76 41/44/76 
f 49/63/77 43/64/77 42/45/77 
f 49/65/78 44/47/78 43/66/78 
f 49/67/79 45/48/79 44/68/79 
f 49/69/80 46/49/80 45/70/80 
f 49/71/81 47/72/81 46/49/81 
f 49/73/82 48/74/82 47/50/82 
f 49/75/83 37/76/83 48/51/83 
f 50/2/84 51/3/84 52/4/84 
f 52/4/85 53/1/85 50/2/85 
f 54/5/86 55/6/86 52/4/86 
f 52/4/86 51/3/86 54/5/86 
f 56/7/87 57/8/87 55/6/87 
f 55/6/88 54/5/88 56/7/88 
f 58/9/89 59/10/89 57/8/89 
f 57/8/89 56/7/89 58/9/89 
f 60/11/90 61/12/90 59/10/90 
f 59/10/91 58/9/91 60/11/91 
f 61/12/92 60/11/92 62/13/92 
f 62/13/93 63/14/93 61/12/93 
f 64/15/94 65/16/94 63/14/94 
f 63/14/95 62/13/95 64/15/95 
f 65/16/96 64/15/96 66/17/96 
f 66/17/97 67/18/97 65/16/97 
f 68/20/98 67/18/98 66/17/98 
f 66/17/99 69/19/99 68/20/99 
f 70/22/100 68/20/100 69/19/100 
f 69/19/100 71/21/100 70/22/100 
f 70/22/101 71/21/101 72/23/101 
f 72/23/102 73/24/102 70/22/102 
f 50/25/103 53/26/103 73/24/103 
f 73/24/104 72/23/104 50/25/104 
f 50/2/105 74/27/105 75/28/105 
f 75/28/106 51/3/106 50/2/106 
f 51/3/107 75/28/107 76/29/107 
f 76/29/108 54/5/108 51/3/108 
f 76/29/109 77/30/109 56/7/109 
f 56/7/110 54/5/110 76/29/110 
f 56/7/111 77/30/111 78/31/111 
f 78/31/112 58/9/112 56/7/112 
f 79/32/113 60/11/113 58/9/113 
f 58/9/114 78/31/114 79/32/114 
f 60/11/115 79/32/115 80/33/115 
f 80/33/115 62/13/115 60/11/115 
f 62/13/116 80/33/116 81/34/116 
f 81/34/117 64/15/117 62/13/117 
f 64/15/118 81/34/118 82/35/118 
f 82/35/119 66/17/119 64/15/119 
f 82/35/120 83/36/120 69/19/120 
f 69/19/121 66/17/121 82/35/121 
f 83/36/122 84/37/122 71/21/122 
f 71/21/123 69/19/123 83/36/123 
f 85/38/124 72/23/124 71/21/124 
f 71/21/124 84/37/124 85/38/124 
f 74/39/125 50/25/125 72/23/125 
f 72/23/126 85/38/126 74/39/126 
f 74/27/127 86/40/127 87/41/127 
f 87/41/128 75/28/128 74/27/128 
f 88/42/129 76/29/129 75/28/129 
f 75/28/130 87/41/130 88/42/130 
f 76/29/131 88/42/131 89/43/131 
f 89/43/132 77/30/132 76/29/132 
f 89/43/133 90/44/133 78/31/133 
f 78/31/134 77/30/134 89/43/134 
f 90/44/135 91/45/135 79/32/135 
f 79/32/136 78/31/136 90/44/136 
f 79/32/137 91/45/137 92/46/137 
f 92/46/138 80/33/138 79/32/138 
f 80/33/139 92/46/139 93/47/139 
f 93/47/140 81/34/140 80/33/140 
f 94/48/141 82/35/141 81/34/141 
f 81/34/142 93/47/142 94/48/142 
f 94/48/143 95/49/143 83/36/143 
f 83/36/144 82/35/144 94/48/144 
f 83/36/145 95/49/145 96/50/145 
f 96/50/146 84/37/146 83/36/146 
f 84/37/147 96/50/147 97/51/147 
f 97/51/148 85/38/148 84/37/148 
f 85/38/149 97/51/149 86/52/149 
f 86/52/150 74/39/150 85/38/150 
f 98/53/151 87/41/151 86/54/151 
f 98/55/152 88/42/152 87/56/152 
f 98/57/153 89/43/153 88/58/153 
f 98/59/154 90/60/154 89/43/154 
f 98/61/155 91/62/155 90/44/155 
f 98/63/156 92/64/156 91/45/156 
f 98/65/157 93/47/157 92/66/157 
f 98/67/158 94/48/158 93/68/158 
f 98/69/159 95/49/159 94/70/159 
f 98/71/160 96/72/160 95/49/160 
f 98/73/161 97/74/161 96/50/161 
f 98/75/162 86/76/162 97/51/162 
# 168 faces

