# 3ds Max Wavefront OBJ Exporter v0.97b - (c)2007 guruware
# File Created: 18.05.2017 01:00:43

#
# object back2223
#

v  0.0000 0.0000 5.0000
v  560.0000 0.0000 5.0000
v  374.0703 185.9297 5.0000
v  8.7395 185.9297 5.0000
v  0.0000 560.0000 5.0000
v  8.7395 479.9468 5.0000
v  80.0532 479.9468 5.0000
v  560.0000 560.0000 5.0000
v  549.6660 479.9468 5.0000
v  549.6660 185.9297 5.0000
v  0.0000 560.0000 -0.0000
v  0.0000 0.0000 -0.0000
v  560.0000 0.0000 -0.0000
v  560.0000 560.0000 -0.0000
# 14 vertices

vn 0.0000 0.0000 1.0000
vn -1.0000 0.0000 -0.0000
vn 0.0000 -1.0000 -0.0000
vn 1.0000 0.0000 -0.0000
vn 0.0000 1.0000 -0.0000
# 5 vertex normals

vt 1.0000 1.0000 0.0000
vt 0.0000 1.0000 0.0000
vt 0.0000 0.0000 0.0000
vt 0.3320 0.3320 0.0000
vt 0.3320 0.9844 0.0000
vt 0.8570 0.9844 0.0000
vt 0.8570 0.8570 0.0000
vt 0.0000 0.0000 0.0000
vt 1.0000 0.0000 0.0000
vt 1.0000 1.0000 0.0000
vt 0.8570 0.8570 0.0000
vt 0.8570 0.0185 0.0000
vt 0.3320 0.0185 0.0000
vt 0.3320 0.3320 0.0000
vt 0.0000 0.0000 1.0000
vt 1.0000 0.0000 1.0000
vt 1.0000 1.0000 1.0000
vt 1.0000 0.0000 0.0000
vt 1.0000 1.0000 0.0000
vt 0.0000 1.0000 0.0000
vt 0.0000 0.0000 0.0000
vt 1.0000 0.0000 0.0000
vt 1.0000 1.0000 0.0000
vt 0.0000 1.0000 1.0000
vt 0.0000 0.0000 1.0000
vt 1.0000 0.0000 1.0000
vt 1.0000 1.0000 1.0000
vt 0.0000 1.0000 1.0000
vt 0.0000 0.0000 1.0000
vt 1.0000 0.0000 1.0000
vt 1.0000 1.0000 1.0000
vt 0.0000 1.0000 1.0000
vt 0.0000 1.0000 0.0000
vt 0.0000 0.0000 0.0000
vt 1.0000 0.0000 0.0000
vt 1.0000 1.0000 0.0000
vt 0.0000 1.0000 0.0000
vt 0.0000 0.0000 0.0000
# 38 texture coords

g back2223
s off
f 1/2/1 2/3/1 3/4/1 
f 1/2/1 3/4/1 4/5/1 
f 5/1/1 1/2/1 4/5/1 
f 5/1/1 4/5/1 6/6/1 
f 5/1/1 6/6/1 7/7/1 
f 8/9/1 5/10/1 7/11/1 
f 8/9/1 7/11/1 9/12/1 
f 2/8/1 8/9/1 9/12/1 
f 2/8/1 9/12/1 10/13/1 
f 2/8/1 10/13/1 3/14/1 
f 1/15/2 5/16/2 11/17/2 
f 2/18/3 1/19/3 12/20/3 
f 8/21/4 2/22/4 13/23/4 
f 5/24/5 8/25/5 14/26/5 
f 11/27/2 12/28/2 1/29/2 
f 14/30/5 11/31/5 5/32/5 
f 12/33/3 13/34/3 2/35/3 
f 13/36/4 14/37/4 8/38/4 
# 18 faces

