# 3ds Max Wavefront OBJ Exporter v0.97b - (c)2007 guruware
# File Created: 09.05.2017 17:00:52

#
# object back2223
#

v  0.0000 560.0000 5.0000
v  0.0000 0.0000 5.0000
v  560.0000 0.0000 5.0000
v  560.0000 560.0000 5.0000
v  0.0000 560.0000 -0.0000
v  0.0000 0.0000 -0.0000
v  560.0000 0.0000 -0.0000
v  560.0000 560.0000 -0.0000
# 8 vertices

vn 0.0000 0.0000 1.0000
vn -1.0000 0.0000 -0.0000
vn 0.0000 -1.0000 -0.0000
vn 1.0000 0.0000 -0.0000
vn 0.0000 1.0000 -0.0000
# 5 vertex normals

vt 1.0000 1.0000 0.0000
vt 0.0000 1.0000 0.0000
vt 1.0000 1.0000 1.0000
vt 1.0000 0.0000 1.0000
vt 1.0000 0.0000 0.0000
vt 1.0000 1.0000 0.0000
vt 0.0000 1.0000 1.0000
vt 0.0000 0.0000 1.0000
vt 1.0000 1.0000 0.0000
vt 0.0000 1.0000 0.0000
vt 0.0000 0.0000 0.0000
vt 0.0000 0.0000 0.0000
vt 1.0000 0.0000 0.0000
vt 1.0000 1.0000 0.0000
vt 1.0000 1.0000 1.0000
vt 0.0000 1.0000 1.0000
vt 0.0000 0.0000 1.0000
vt 0.0000 0.0000 1.0000
vt 1.0000 0.0000 1.0000
vt 1.0000 1.0000 1.0000
vt 0.0000 1.0000 0.0000
vt 0.0000 0.0000 0.0000
vt 1.0000 0.0000 0.0000
vt 1.0000 0.0000 0.0000
vt 1.0000 1.0000 0.0000
vt 0.0000 1.0000 0.0000
vt 0.0000 0.0000 0.0000
vt 0.0000 0.0000 0.0000
vt 1.0000 0.0000 1.0000
vt 0.0000 1.0000 1.0000
# 30 texture coords

g back2223
s off
f 1/9/1 2/10/1 3/11/1 
f 3/12/1 4/13/1 1/14/1 
f 5/15/2 6/16/2 2/17/2 
f 2/18/2 1/19/2 5/20/2 
f 6/21/3 7/22/3 3/23/3 
f 3/24/3 2/6/3 6/2/3 
f 7/25/4 8/26/4 4/27/4 
f 4/28/4 3/5/4 7/1/4 
f 8/29/5 5/3/5 1/30/5 
f 1/7/5 4/8/5 8/4/5 
# 10 faces

